<svg width="129" height="36" viewBox="0 0 129 36" fill="none" xmlns="http://www.w3.org/2000/svg">
<path d="M0.626849 13.067L6.53545 2.43303C6.94649 1.69324 7.53772 1.07891 8.2497 0.651824C8.96168 0.224734 9.76931 -7.39129e-05 10.5914 1.82291e-08H22.4086C23.2307 -7.39129e-05 24.0383 0.224734 24.7503 0.651824C25.4623 1.07891 26.0535 1.69324 26.4646 2.43303L29.7164 8.28556L21.0696 24.1132C20.924 24.3753 20.8845 24.6868 20.9599 24.9791C21.0353 25.2714 21.2194 25.5207 21.4717 25.672C21.7239 25.8233 22.0237 25.8643 22.305 25.7859C22.5863 25.7076 22.8262 25.5163 22.9718 25.2542L30.9846 10.5677L32.3731 13.067C32.7838 13.8068 33 14.6459 33 15.5C33 16.3541 32.7838 17.1932 32.3731 17.933L26.4646 28.567C26.0535 29.3068 25.4623 29.9211 24.7503 30.3482C24.0383 30.7753 23.2307 31.0001 22.4086 31H10.7579L19.0894 16.5638C19.4065 15.8388 19.4487 15.0162 19.2075 14.2604C18.9663 13.5045 18.4595 12.8711 17.7884 12.4866C17.1173 12.1022 16.3313 11.995 15.5874 12.1865C14.8436 12.378 14.1967 12.8541 13.776 13.5197L5.81635 27.275L3.64845 23.3733L13.071 6.6255C13.1343 6.51143 13.1753 6.38552 13.1918 6.25497C13.2082 6.12442 13.1997 5.99179 13.1668 5.86464C13.1339 5.73749 13.0773 5.61832 13 5.51393C12.9228 5.40954 12.8266 5.32197 12.7168 5.25623C12.607 5.19049 12.4858 5.14787 12.3602 5.13079C12.2346 5.11371 12.1069 5.12251 11.9846 5.15669C11.8622 5.19087 11.7475 5.24976 11.647 5.32999C11.5466 5.41023 11.4623 5.51024 11.3991 5.62432L2.54325 21.3673L0.626849 17.933C0.216181 17.1932 0 16.3541 0 15.5C0 14.6459 0.216181 13.8068 0.626849 13.067ZM20.0742 9.93826C20.4147 10.1336 20.7892 10.2569 21.1758 10.301C21.5625 10.345 21.9537 10.309 22.3269 10.1951C22.7001 10.0811 23.0479 9.89139 23.3501 9.63693C23.6523 9.38246 23.903 9.06828 24.0877 8.71254L24.1727 8.55058C24.3722 8.19786 24.5015 7.80714 24.5531 7.40154C24.6047 6.99594 24.5775 6.58371 24.473 6.18924C24.3686 5.79478 24.189 5.4261 23.945 5.10502C23.701 4.78395 23.3974 4.517 23.0524 4.31999C22.7073 4.12297 22.3277 3.9999 21.936 3.95804C21.5444 3.91618 21.1486 3.95639 20.7721 4.07629C20.3957 4.19619 20.0462 4.39334 19.7444 4.65608C19.4426 4.91882 19.1946 5.2418 19.0151 5.60591L18.93 5.76787C18.7407 6.11952 18.62 6.5066 18.575 6.90685C18.5301 7.3071 18.5616 7.71264 18.668 8.10016C18.7743 8.48769 18.9533 8.84957 19.1946 9.16501C19.4359 9.48045 19.7348 9.74323 20.0742 9.93826Z" fill="#042866"/>
<path d="M44 3.15119C44 0.961234 45.1506 0 47.7746 0C50.3986 0 51.5409 0.961234 51.5409 3.15119C51.5409 5.34115 50.3986 6.26897 47.7746 6.26897C45.1506 6.26897 44 5.30772 44 3.15119Z" fill="#042866"/>
<path d="M51.0024 8.50098H44.5293V27.7258H51.0024V8.50098Z" fill="#042866"/>
<path d="M73.932 14.9205V27.726H67.4589V16.6925C67.4589 13.9676 66.358 13.0816 64.7603 13.0816C62.8896 13.0816 61.3335 14.3521 61.3335 17.5368V27.726H54.8438V8.5011H60.6381L60.8285 12.229C61.3557 10.9461 62.2654 9.86077 63.4313 9.12384C64.5973 8.38687 65.9616 8.03482 67.3347 8.11658C71.2666 8.11658 73.932 10.457 73.932 14.9205Z" fill="#042866"/>
<path d="M77.1934 3.15119C77.1934 0.961234 78.3356 0 80.9596 0C83.5837 0 84.7343 0.961234 84.7343 3.15119C84.7343 5.34115 83.5919 6.26897 80.9596 6.26897C78.3273 6.26897 77.1934 5.30772 77.1934 3.15119Z" fill="#042866"/>
<path d="M84.1723 8.50098H77.6992V27.7258H84.1723V8.50098Z" fill="#042866"/>
<path fill-rule="evenodd" clip-rule="evenodd" d="M106.993 29.2299C106.993 33.6934 102.722 36.0004 96.2901 36.0004C89.3948 36.0004 86.5391 34.2284 86.5391 31.4617C86.5391 29.8903 87.5655 28.4275 90.0405 27.8507C88.3849 27.1152 87.1516 25.8446 87.1516 23.847C87.1851 22.9478 87.5017 22.0828 88.0556 21.3777C88.6093 20.6727 89.3714 20.1644 90.2309 19.9268C89.2713 19.44 88.4708 18.6846 87.9248 17.7508C87.3788 16.8171 87.1104 15.7444 87.1516 14.6609C87.1516 10.4816 90.5372 8.1244 96.4391 8.1244C97.718 8.12068 98.994 8.24951 100.247 8.50888C100.743 5.54157 102.531 3.04235 106.265 3.35163L106.993 7.6981C104.593 7.3554 103.103 8.15783 102.531 9.36983C103.518 9.84488 104.346 10.5998 104.915 11.5423C105.484 12.4849 105.769 13.5743 105.735 14.6775C105.735 18.8569 102.341 21.1722 96.4391 21.1722C95.2138 21.1849 93.9906 21.07 92.7887 20.8295C91.9112 21.0552 91.5636 21.4815 91.5636 22.1753C91.5636 23.0111 92.292 23.4792 93.5502 23.4792H100.056C104.51 23.4541 106.993 25.3767 106.993 29.2299ZM101.885 29.8899C101.885 29.1209 101.314 28.6528 99.5588 28.6528H94.3439C92.2497 28.6528 91.4551 29.0791 91.4551 29.9985C91.4551 31.1186 93.0526 31.7706 96.7445 31.7706C100.279 31.7372 101.918 30.9514 101.918 29.8816L101.885 29.8899ZM94.4848 16.5763C93.9605 16.0748 93.6465 15.3894 93.6074 14.6613C93.6465 13.9331 93.9605 13.2478 94.4848 12.7463C95.0091 12.2448 95.7038 11.9653 96.4259 11.9653C97.1482 11.9653 97.8428 12.2448 98.3671 12.7463C98.8914 13.2478 99.2054 13.9331 99.2445 14.6613C99.2054 15.3894 98.8914 16.0748 98.3671 16.5763C97.8428 17.0778 97.1482 17.3573 96.4259 17.3573C95.7038 17.3573 95.0091 17.0778 94.4848 16.5763Z" fill="#042866"/>
<path fill-rule="evenodd" clip-rule="evenodd" d="M117.952 28.1433C124.309 28.1433 128.001 24.4153 128.001 18.1129C128.001 11.8021 124.317 8.08252 117.952 8.08252C111.586 8.08252 107.895 11.777 107.895 18.1129C107.895 24.4487 111.595 28.1433 117.952 28.1433ZM117.953 23.4544C115.553 23.4544 114.369 21.883 114.369 18.1132C114.369 14.3435 115.561 12.7637 117.953 12.7637C120.346 12.7637 121.529 14.3435 121.529 18.1132C121.529 21.883 120.354 23.4544 117.953 23.4544Z" fill="#042866"/>
</svg>
